# xmcd
#
# Track frame offsets:
#	150
#	18422
#	37093
#	57284
#	75095
#	87342
#	104173
#	118073
#	131312
#	144862
#	163818
#	183536
#
# Disc length: 2903 seconds
#
# Revision: 1
# Processed by: cddbd v1.5.2PL0 Copyright (c) Steve Scherf et al.
# Submitted via: audiograbber 1.83.01
#
DISCID=9c0b550c
DTITLE=Various Artist - The Fantastic Bluegrass Sampler
DYEAR=2006
DGENRE=Bluegrass
TTITLE0=Larry Cordell and Lonesome Standard Time - Call Me the Breeze
TTITLE1=David West - Free Falln'
TTITLE2=The Sidekicks - Back in Black
TTITLE3=Cornbread Red - Walk This Way
TTITLE4=Dennis Caplinger - Hot Legs
TTITLE5=Dave Dick and Friends - Already Gone
TTITLE6=Dennis Caplinger - Mr. Jones
TTITLE7=The Sidekicks - Strange Brew
TTITLE8=Iron Horse - Rock and Roll
TTITLE9=The Sidekicks - Seven Nation Army
TTITLE10=Cornbread Red - Boulevard of Broken Dreams
TTITLE11=Old School Freight Train - Clocks
EXTD=
EXTT0=
EXTT1=
EXTT2=
EXTT3=
EXTT4=
EXTT5=
EXTT6=
EXTT7=
EXTT8=
EXTT9=
EXTT10=
EXTT11=
PLAYORDER=
